<?xml version="1.0" encoding="UTF-8" standalone="no"?>
<!-- Created with Inkscape (http://www.inkscape.org/) -->

<svg
   xmlns:dc="http://purl.org/dc/elements/1.1/"
   xmlns:cc="http://creativecommons.org/ns#"
   xmlns:rdf="http://www.w3.org/1999/02/22-rdf-syntax-ns#"
   xmlns:svg="http://www.w3.org/2000/svg"
   xmlns="http://www.w3.org/2000/svg"
   xmlns:sodipodi="http://sodipodi.sourceforge.net/DTD/sodipodi-0.dtd"
   xmlns:inkscape="http://www.inkscape.org/namespaces/inkscape"
   width="177.72902mm"
   height="23.255819mm"
   viewBox="0 0 177.72901 23.25582"
   version="1.1"
   id="svg8"
   inkscape:version="0.92.5 (2060ec1f9f, 2020-04-08)"
   sodipodi:docname="absoluteG.svg">
  <defs
     id="defs2">
    <marker
       inkscape:stockid="DotM"
       orient="auto"
       refY="0"
       refX="0"
       id="marker5717"
       style="overflow:visible"
       inkscape:isstock="true">
      <path
         id="path5715"
         d="m -2.5,-1 c 0,2.76 -2.24,5 -5,5 -2.76,0 -5,-2.24 -5,-5 0,-2.76 2.24,-5 5,-5 2.76,0 5,2.24 5,5 z"
         style="fill:#000000;fill-opacity:1;fill-rule:evenodd;stroke:#000000;stroke-width:1.00000003pt;stroke-opacity:1"
         transform="matrix(0.4,0,0,0.4,2.96,0.4)"
         inkscape:connector-curvature="0" />
    </marker>
    <marker
       inkscape:stockid="DotM"
       orient="auto"
       refY="0"
       refX="0"
       id="marker5629"
       style="overflow:visible"
       inkscape:isstock="true">
      <path
         id="path5627"
         d="m -2.5,-1 c 0,2.76 -2.24,5 -5,5 -2.76,0 -5,-2.24 -5,-5 0,-2.76 2.24,-5 5,-5 2.76,0 5,2.24 5,5 z"
         style="fill:#000000;fill-opacity:1;fill-rule:evenodd;stroke:#000000;stroke-width:1.00000003pt;stroke-opacity:1"
         transform="matrix(0.4,0,0,0.4,2.96,0.4)"
         inkscape:connector-curvature="0" />
    </marker>
    <marker
       inkscape:stockid="DotM"
       orient="auto"
       refY="0"
       refX="0"
       id="marker5553"
       style="overflow:visible"
       inkscape:isstock="true">
      <path
         id="path5551"
         d="m -2.5,-1 c 0,2.76 -2.24,5 -5,5 -2.76,0 -5,-2.24 -5,-5 0,-2.76 2.24,-5 5,-5 2.76,0 5,2.24 5,5 z"
         style="fill:#000000;fill-opacity:1;fill-rule:evenodd;stroke:#000000;stroke-width:1.00000003pt;stroke-opacity:1"
         transform="matrix(0.4,0,0,0.4,2.96,0.4)"
         inkscape:connector-curvature="0" />
    </marker>
    <marker
       inkscape:stockid="DotM"
       orient="auto"
       refY="0"
       refX="0"
       id="marker5483"
       style="overflow:visible"
       inkscape:isstock="true">
      <path
         id="path5481"
         d="m -2.5,-1 c 0,2.76 -2.24,5 -5,5 -2.76,0 -5,-2.24 -5,-5 0,-2.76 2.24,-5 5,-5 2.76,0 5,2.24 5,5 z"
         style="fill:#000000;fill-opacity:1;fill-rule:evenodd;stroke:#000000;stroke-width:1.00000003pt;stroke-opacity:1"
         transform="matrix(0.4,0,0,0.4,2.96,0.4)"
         inkscape:connector-curvature="0" />
    </marker>
    <marker
       inkscape:stockid="DotM"
       orient="auto"
       refY="0"
       refX="0"
       id="marker5419"
       style="overflow:visible"
       inkscape:isstock="true">
      <path
         id="path5417"
         d="m -2.5,-1 c 0,2.76 -2.24,5 -5,5 -2.76,0 -5,-2.24 -5,-5 0,-2.76 2.24,-5 5,-5 2.76,0 5,2.24 5,5 z"
         style="fill:#000000;fill-opacity:1;fill-rule:evenodd;stroke:#000000;stroke-width:1.00000003pt;stroke-opacity:1"
         transform="matrix(0.4,0,0,0.4,2.96,0.4)"
         inkscape:connector-curvature="0" />
    </marker>
    <marker
       inkscape:stockid="DotM"
       orient="auto"
       refY="0"
       refX="0"
       id="marker5355"
       style="overflow:visible"
       inkscape:isstock="true">
      <path
         id="path5353"
         d="m -2.5,-1 c 0,2.76 -2.24,5 -5,5 -2.76,0 -5,-2.24 -5,-5 0,-2.76 2.24,-5 5,-5 2.76,0 5,2.24 5,5 z"
         style="fill:#000000;fill-opacity:1;fill-rule:evenodd;stroke:#000000;stroke-width:1.00000003pt;stroke-opacity:1"
         transform="matrix(0.4,0,0,0.4,2.96,0.4)"
         inkscape:connector-curvature="0" />
    </marker>
    <marker
       inkscape:isstock="true"
       style="overflow:visible"
       id="marker5291"
       refX="0"
       refY="0"
       orient="auto"
       inkscape:stockid="DotM">
      <path
         transform="matrix(0.4,0,0,0.4,2.96,0.4)"
         style="fill:#000000;fill-opacity:1;fill-rule:evenodd;stroke:#000000;stroke-width:1.00000003pt;stroke-opacity:1"
         d="m -2.5,-1 c 0,2.76 -2.24,5 -5,5 -2.76,0 -5,-2.24 -5,-5 0,-2.76 2.24,-5 5,-5 2.76,0 5,2.24 5,5 z"
         id="path5289"
         inkscape:connector-curvature="0" />
    </marker>
    <marker
       inkscape:isstock="true"
       style="overflow:visible"
       id="marker5245"
       refX="0"
       refY="0"
       orient="auto"
       inkscape:stockid="DotM">
      <path
         transform="matrix(0.4,0,0,0.4,2.96,0.4)"
         style="fill:#000000;fill-opacity:1;fill-rule:evenodd;stroke:#000000;stroke-width:1.00000003pt;stroke-opacity:1"
         d="m -2.5,-1 c 0,2.76 -2.24,5 -5,5 -2.76,0 -5,-2.24 -5,-5 0,-2.76 2.24,-5 5,-5 2.76,0 5,2.24 5,5 z"
         id="path5243"
         inkscape:connector-curvature="0" />
    </marker>
    <marker
       inkscape:isstock="true"
       style="overflow:visible"
       id="marker5205"
       refX="0"
       refY="0"
       orient="auto"
       inkscape:stockid="DotM">
      <path
         transform="matrix(0.4,0,0,0.4,2.96,0.4)"
         style="fill:#000000;fill-opacity:1;fill-rule:evenodd;stroke:#000000;stroke-width:1.00000003pt;stroke-opacity:1"
         d="m -2.5,-1 c 0,2.76 -2.24,5 -5,5 -2.76,0 -5,-2.24 -5,-5 0,-2.76 2.24,-5 5,-5 2.76,0 5,2.24 5,5 z"
         id="path5203"
         inkscape:connector-curvature="0" />
    </marker>
    <marker
       inkscape:isstock="true"
       style="overflow:visible"
       id="marker5171"
       refX="0"
       refY="0"
       orient="auto"
       inkscape:stockid="DotM">
      <path
         transform="matrix(0.4,0,0,0.4,2.96,0.4)"
         style="fill:#000000;fill-opacity:1;fill-rule:evenodd;stroke:#000000;stroke-width:1.00000003pt;stroke-opacity:1"
         d="m -2.5,-1 c 0,2.76 -2.24,5 -5,5 -2.76,0 -5,-2.24 -5,-5 0,-2.76 2.24,-5 5,-5 2.76,0 5,2.24 5,5 z"
         id="path5169"
         inkscape:connector-curvature="0" />
    </marker>
    <marker
       inkscape:isstock="true"
       style="overflow:visible"
       id="marker5143"
       refX="0"
       refY="0"
       orient="auto"
       inkscape:stockid="DotM">
      <path
         transform="matrix(0.4,0,0,0.4,2.96,0.4)"
         style="fill:#000000;fill-opacity:1;fill-rule:evenodd;stroke:#000000;stroke-width:1.00000003pt;stroke-opacity:1"
         d="m -2.5,-1 c 0,2.76 -2.24,5 -5,5 -2.76,0 -5,-2.24 -5,-5 0,-2.76 2.24,-5 5,-5 2.76,0 5,2.24 5,5 z"
         id="path5141"
         inkscape:connector-curvature="0" />
    </marker>
    <marker
       inkscape:isstock="true"
       style="overflow:visible"
       id="marker5121"
       refX="0"
       refY="0"
       orient="auto"
       inkscape:stockid="DotM"
       inkscape:collect="always">
      <path
         transform="matrix(0.4,0,0,0.4,2.96,0.4)"
         style="fill:#000000;fill-opacity:1;fill-rule:evenodd;stroke:#000000;stroke-width:1.00000003pt;stroke-opacity:1"
         d="m -2.5,-1 c 0,2.76 -2.24,5 -5,5 -2.76,0 -5,-2.24 -5,-5 0,-2.76 2.24,-5 5,-5 2.76,0 5,2.24 5,5 z"
         id="path5119"
         inkscape:connector-curvature="0" />
    </marker>
    <marker
       inkscape:stockid="DotM"
       orient="auto"
       refY="0"
       refX="0"
       id="DotM"
       style="overflow:visible"
       inkscape:isstock="true"
       inkscape:collect="always">
      <path
         id="path4901"
         d="m -2.5,-1 c 0,2.76 -2.24,5 -5,5 -2.76,0 -5,-2.24 -5,-5 0,-2.76 2.24,-5 5,-5 2.76,0 5,2.24 5,5 z"
         style="fill:#000000;fill-opacity:1;fill-rule:evenodd;stroke:#000000;stroke-width:1.00000003pt;stroke-opacity:1"
         transform="matrix(0.4,0,0,0.4,2.96,0.4)"
         inkscape:connector-curvature="0" />
    </marker>
    <inkscape:path-effect
       border_marks="both"
       mark_dir="right"
       offset="3"
       shift="0"
       major_mark_steps="5"
       minor_mark_length="7"
       mark_length="14"
       mark_distance="10"
       unit="px"
       is_visible="true"
       id="path-effect4014"
       effect="ruler" />
    <inkscape:path-effect
       effect="ruler"
       id="path-effect3951"
       is_visible="true"
       unit="px"
       mark_distance="20"
       mark_length="14"
       minor_mark_length="7"
       major_mark_steps="5"
       shift="0"
       offset="0"
       mark_dir="left"
       border_marks="both" />
    <inkscape:path-effect
       effect="ruler"
       id="path-effect3947"
       is_visible="true"
       unit="px"
       mark_distance="20"
       mark_length="14"
       minor_mark_length="7"
       major_mark_steps="5"
       shift="0"
       offset="0"
       mark_dir="left"
       border_marks="both" />
  </defs>
  <sodipodi:namedview
     id="base"
     pagecolor="#ffffff"
     bordercolor="#666666"
     borderopacity="1.0"
     inkscape:pageopacity="0.0"
     inkscape:pageshadow="2"
     inkscape:zoom="1.1229167"
     inkscape:cx="204.45351"
     inkscape:cy="-6.5057759"
     inkscape:document-units="mm"
     inkscape:current-layer="layer1"
     showgrid="false"
     inkscape:window-width="1920"
     inkscape:window-height="1053"
     inkscape:window-x="0"
     inkscape:window-y="-10"
     inkscape:window-maximized="1"
     fit-margin-top="0"
     fit-margin-left="0"
     fit-margin-right="0"
     fit-margin-bottom="0">
    <inkscape:grid
       type="xygrid"
       id="grid3942"
       originx="-2.5135413"
       originy="-270.85997" />
  </sodipodi:namedview>
  <metadata
     id="metadata5">
    <rdf:RDF>
      <cc:Work
         rdf:about="">
        <dc:format>image/svg+xml</dc:format>
        <dc:type
           rdf:resource="http://purl.org/dc/dcmitype/StillImage" />
        <dc:title></dc:title>
      </cc:Work>
    </rdf:RDF>
  </metadata>
  <g
     inkscape:label="Layer 1"
     inkscape:groupmode="layer"
     id="layer1"
     transform="translate(-2.5135416,-2.884227)">
    <path
       style="fill:none;fill-rule:evenodd;stroke:#000000;stroke-width:0.26458332px;stroke-linecap:butt;stroke-linejoin:miter;stroke-opacity:1"
       d="M 2.6458333,11.25 H 148.16666 m -145.5208267,0 V 7.5458333 M 7.9375,11.25 V 9.3979167 M 13.229167,11.25 V 9.3979167 M 18.520833,11.25 V 9.3979167 M 23.8125,11.25 V 9.3979167 M 29.104167,11.25 V 7.5458333 M 34.395833,11.25 V 9.3979167 M 39.6875,11.25 V 9.3979167 M 44.979167,11.25 V 9.3979167 M 50.270833,11.25 V 9.3979167 M 55.5625,11.25 V 7.5458333 M 60.854167,11.25 V 9.3979167 M 66.145833,11.25 V 9.3979167 M 71.4375,11.25 V 9.3979167 M 76.729167,11.25 V 9.3979167 M 82.020833,11.25 V 7.5458333 M 87.3125,11.25 V 9.3979167 M 92.604167,11.25 V 9.3979167 M 97.895833,11.25 V 9.3979167 M 103.1875,11.25 V 9.3979167 M 108.47917,11.25 V 7.5458333 M 113.77083,11.25 V 9.3979167 M 119.0625,11.25 V 9.3979167 M 124.35417,11.25 V 9.3979167 M 129.64583,11.25 V 9.3979167 M 134.9375,11.25 V 7.5458333 M 140.22917,11.25 V 9.3979167 M 145.52083,11.25 V 9.3979167 M 148.16666,11.25 V 7.5458333"
       id="path3949"
       inkscape:connector-curvature="0"
       inkscape:path-effect="#path-effect3951"
       inkscape:original-d="M 2.6458333,11.25 H 148.16666" />
    <text
       xml:space="preserve"
       style="font-style:normal;font-variant:normal;font-weight:bold;font-stretch:normal;font-size:7.76111126px;line-height:6.61458254px;font-family:'Helvetica LT Std';-inkscape-font-specification:'Helvetica LT Std Bold';font-variant-ligatures:normal;font-variant-position:normal;font-variant-caps:normal;font-variant-numeric:normal;font-variant-alternates:normal;font-feature-settings:normal;text-indent:0;text-align:start;text-decoration:none;text-decoration-line:none;text-decoration-style:solid;text-decoration-color:#000000;letter-spacing:0px;word-spacing:0px;text-transform:none;writing-mode:lr-tb;direction:ltr;text-orientation:mixed;dominant-baseline:auto;baseline-shift:baseline;text-anchor:start;white-space:normal;shape-padding:0;opacity:1;vector-effect:none;fill:#000000;fill-opacity:1;stroke:none;stroke-width:0.26458332px;stroke-linecap:butt;stroke-linejoin:miter;stroke-miterlimit:4;stroke-dasharray:none;stroke-dashoffset:0;stroke-opacity:1"
       x="39.6875"
       y="8.604166"
       id="text3955"><tspan
         sodipodi:role="line"
         id="tspan3953"
         x="39.6875"
         y="8.604166"
         style="font-style:normal;font-variant:normal;font-weight:bold;font-stretch:normal;font-family:'Helvetica LT Std';-inkscape-font-specification:'Helvetica LT Std Bold';stroke-width:0.26458332px">A</tspan></text>
    <text
       id="text3959"
       y="8.604166"
       x="82.020828"
       style="font-style:normal;font-variant:normal;font-weight:bold;font-stretch:normal;font-size:7.76111126px;line-height:6.61458254px;font-family:'Helvetica LT Std';-inkscape-font-specification:'Helvetica LT Std Bold';font-variant-ligatures:normal;font-variant-position:normal;font-variant-caps:normal;font-variant-numeric:normal;font-variant-alternates:normal;font-feature-settings:normal;text-indent:0;text-align:start;text-decoration:none;text-decoration-line:none;text-decoration-style:solid;text-decoration-color:#000000;letter-spacing:0px;word-spacing:0px;text-transform:none;writing-mode:lr-tb;direction:ltr;text-orientation:mixed;dominant-baseline:auto;baseline-shift:baseline;text-anchor:start;white-space:normal;shape-padding:0;opacity:1;vector-effect:none;fill:#000000;fill-opacity:1;stroke:none;stroke-width:0.26458332px;stroke-linecap:butt;stroke-linejoin:miter;stroke-miterlimit:4;stroke-dasharray:none;stroke-dashoffset:0;stroke-opacity:1"
       xml:space="preserve"><tspan
         style="font-style:normal;font-variant:normal;font-weight:bold;font-stretch:normal;font-family:'Helvetica LT Std';-inkscape-font-specification:'Helvetica LT Std Bold';stroke-width:0.26458332px"
         y="8.604166"
         x="82.020828"
         id="tspan3957"
         sodipodi:role="line">B</tspan></text>
    <text
       xml:space="preserve"
       style="font-style:normal;font-variant:normal;font-weight:bold;font-stretch:normal;font-size:7.76111126px;line-height:6.61458254px;font-family:'Helvetica LT Std';-inkscape-font-specification:'Helvetica LT Std Bold';font-variant-ligatures:normal;font-variant-position:normal;font-variant-caps:normal;font-variant-numeric:normal;font-variant-alternates:normal;font-feature-settings:normal;text-indent:0;text-align:start;text-decoration:none;text-decoration-line:none;text-decoration-style:solid;text-decoration-color:#000000;letter-spacing:0px;word-spacing:0px;text-transform:none;writing-mode:lr-tb;direction:ltr;text-orientation:mixed;dominant-baseline:auto;baseline-shift:baseline;text-anchor:start;white-space:normal;shape-padding:0;opacity:1;vector-effect:none;fill:#000000;fill-opacity:1;stroke:none;stroke-width:0.26458332px;stroke-linecap:butt;stroke-linejoin:miter;stroke-miterlimit:4;stroke-dasharray:none;stroke-dashoffset:0;stroke-opacity:1"
       x="97.895821"
       y="8.604166"
       id="text3963"><tspan
         sodipodi:role="line"
         id="tspan3961"
         x="97.895821"
         y="8.604166"
         style="font-style:normal;font-variant:normal;font-weight:bold;font-stretch:normal;font-family:'Helvetica LT Std';-inkscape-font-specification:'Helvetica LT Std Bold';stroke-width:0.26458332px">C</tspan></text>
    <text
       id="text3967"
       y="8.604166"
       x="18.52083"
       style="font-style:normal;font-variant:normal;font-weight:bold;font-stretch:normal;font-size:7.76111126px;line-height:6.61458254px;font-family:'Helvetica LT Std';-inkscape-font-specification:'Helvetica LT Std Bold';font-variant-ligatures:normal;font-variant-position:normal;font-variant-caps:normal;font-variant-numeric:normal;font-variant-alternates:normal;font-feature-settings:normal;text-indent:0;text-align:start;text-decoration:none;text-decoration-line:none;text-decoration-style:solid;text-decoration-color:#000000;letter-spacing:0px;word-spacing:0px;text-transform:none;writing-mode:lr-tb;direction:ltr;text-orientation:mixed;dominant-baseline:auto;baseline-shift:baseline;text-anchor:start;white-space:normal;shape-padding:0;opacity:1;vector-effect:none;fill:#000000;fill-opacity:1;stroke:none;stroke-width:0.26458332px;stroke-linecap:butt;stroke-linejoin:miter;stroke-miterlimit:4;stroke-dasharray:none;stroke-dashoffset:0;stroke-opacity:1"
       xml:space="preserve"><tspan
         style="font-style:normal;font-variant:normal;font-weight:bold;font-stretch:normal;font-family:'Helvetica LT Std';-inkscape-font-specification:'Helvetica LT Std Bold';stroke-width:0.26458332px"
         y="8.604166"
         x="18.52083"
         id="tspan3965"
         sodipodi:role="line">D</tspan></text>
    <text
       xml:space="preserve"
       style="font-style:normal;font-variant:normal;font-weight:bold;font-stretch:normal;font-size:7.76111126px;line-height:6.61458254px;font-family:'Helvetica LT Std';-inkscape-font-specification:'Helvetica LT Std Bold';font-variant-ligatures:normal;font-variant-position:normal;font-variant-caps:normal;font-variant-numeric:normal;font-variant-alternates:normal;font-feature-settings:normal;text-indent:0;text-align:start;text-decoration:none;text-decoration-line:none;text-decoration-style:solid;text-decoration-color:#000000;letter-spacing:0px;word-spacing:0px;text-transform:none;writing-mode:lr-tb;direction:ltr;text-orientation:mixed;dominant-baseline:auto;baseline-shift:baseline;text-anchor:start;white-space:normal;shape-padding:0;opacity:1;vector-effect:none;fill:#000000;fill-opacity:1;stroke:none;stroke-width:0.26458332px;stroke-linecap:butt;stroke-linejoin:miter;stroke-miterlimit:4;stroke-dasharray:none;stroke-dashoffset:0;stroke-opacity:1"
       x="71.4375"
       y="8.604166"
       id="text3971"><tspan
         sodipodi:role="line"
         id="tspan3969"
         x="71.4375"
         y="8.604166"
         style="font-style:normal;font-variant:normal;font-weight:bold;font-stretch:normal;font-family:'Helvetica LT Std';-inkscape-font-specification:'Helvetica LT Std Bold';stroke-width:0.26458332px">G</tspan></text>
    <text
       id="text3975"
       y="8.604166"
       x="129.64581"
       style="font-style:normal;font-variant:normal;font-weight:bold;font-stretch:normal;font-size:7.76111126px;line-height:6.61458254px;font-family:'Helvetica LT Std';-inkscape-font-specification:'Helvetica LT Std Bold';font-variant-ligatures:normal;font-variant-position:normal;font-variant-caps:normal;font-variant-numeric:normal;font-variant-alternates:normal;font-feature-settings:normal;text-indent:0;text-align:start;text-decoration:none;text-decoration-line:none;text-decoration-style:solid;text-decoration-color:#000000;letter-spacing:0px;word-spacing:0px;text-transform:none;writing-mode:lr-tb;direction:ltr;text-orientation:mixed;dominant-baseline:auto;baseline-shift:baseline;text-anchor:start;white-space:normal;shape-padding:0;opacity:1;vector-effect:none;fill:#000000;fill-opacity:1;stroke:none;stroke-width:0.26458332px;stroke-linecap:butt;stroke-linejoin:miter;stroke-miterlimit:4;stroke-dasharray:none;stroke-dashoffset:0;stroke-opacity:1"
       xml:space="preserve"><tspan
         style="font-style:normal;font-variant:normal;font-weight:bold;font-stretch:normal;font-family:'Helvetica LT Std';-inkscape-font-specification:'Helvetica LT Std Bold';stroke-width:0.26458332px"
         y="8.604166"
         x="129.64581"
         id="tspan3973"
         sodipodi:role="line">E</tspan></text>
    <text
       xml:space="preserve"
       style="font-style:normal;font-variant:normal;font-weight:bold;font-stretch:normal;font-size:7.76111126px;line-height:6.61458254px;font-family:'Helvetica LT Std';-inkscape-font-specification:'Helvetica LT Std Bold';font-variant-ligatures:normal;font-variant-position:normal;font-variant-caps:normal;font-variant-numeric:normal;font-variant-alternates:normal;font-feature-settings:normal;text-indent:0;text-align:start;text-decoration:none;text-decoration-line:none;text-decoration-style:solid;text-decoration-color:#000000;letter-spacing:0px;word-spacing:0px;text-transform:none;writing-mode:lr-tb;direction:ltr;text-orientation:mixed;dominant-baseline:auto;baseline-shift:baseline;text-anchor:start;white-space:normal;shape-padding:0;opacity:1;vector-effect:none;fill:#000000;fill-opacity:1;stroke:none;stroke-width:0.26458332px;stroke-linecap:butt;stroke-linejoin:miter;stroke-miterlimit:4;stroke-dasharray:none;stroke-dashoffset:0;stroke-opacity:1"
       x="108.47914"
       y="8.604166"
       id="text3979"><tspan
         sodipodi:role="line"
         id="tspan3977"
         x="108.47914"
         y="8.604166"
         style="font-style:normal;font-variant:normal;font-weight:bold;font-stretch:normal;font-family:'Helvetica LT Std';-inkscape-font-specification:'Helvetica LT Std Bold';stroke-width:0.26458332px">F</tspan></text>
    <text
       xml:space="preserve"
       style="font-style:normal;font-variant:normal;font-weight:bold;font-stretch:normal;font-size:7.76111126px;line-height:6.61458254px;font-family:'Helvetica LT Std';-inkscape-font-specification:'Helvetica LT Std Bold';font-variant-ligatures:normal;font-variant-position:normal;font-variant-caps:normal;font-variant-numeric:normal;font-variant-alternates:normal;font-feature-settings:normal;text-indent:0;text-align:start;text-decoration:none;text-decoration-line:none;text-decoration-style:solid;text-decoration-color:#000000;letter-spacing:0px;word-spacing:0px;text-transform:none;writing-mode:lr-tb;direction:ltr;text-orientation:mixed;dominant-baseline:auto;baseline-shift:baseline;text-anchor:start;white-space:normal;shape-padding:0;opacity:1;vector-effect:none;fill:#000000;fill-opacity:1;stroke:none;stroke-width:0.26458332px;stroke-linecap:butt;stroke-linejoin:miter;stroke-miterlimit:4;stroke-dasharray:none;stroke-dashoffset:0;stroke-opacity:1"
       x="150.8125"
       y="13.366667"
       id="text3983"><tspan
         sodipodi:role="line"
         id="tspan3981"
         x="150.8125"
         y="13.366667"
         style="font-style:normal;font-variant:normal;font-weight:bold;font-stretch:normal;font-family:'Helvetica LT Std';-inkscape-font-specification:'Helvetica LT Std Bold';stroke-width:0.26458332px">ΔG<tspan
   style="font-style:normal;font-variant:normal;font-weight:bold;font-stretch:normal;font-size:64.99999762%;font-family:'Helvetica LT Std';-inkscape-font-specification:'Helvetica LT Std Bold';baseline-shift:sub"
   id="tspan5815">bind</tspan></tspan></text>
    <text
       id="text3991"
       y="24.479168"
       x="150.8125"
       style="font-style:normal;font-variant:normal;font-weight:bold;font-stretch:normal;font-size:7.76111126px;line-height:6.61458254px;font-family:'Helvetica LT Std';-inkscape-font-specification:'Helvetica LT Std Bold';font-variant-ligatures:normal;font-variant-position:normal;font-variant-caps:normal;font-variant-numeric:normal;font-variant-alternates:normal;font-feature-settings:normal;text-indent:0;text-align:start;text-decoration:none;text-decoration-line:none;text-decoration-style:solid;text-decoration-color:#000000;letter-spacing:0px;word-spacing:0px;text-transform:none;writing-mode:lr-tb;direction:ltr;text-orientation:mixed;dominant-baseline:auto;baseline-shift:baseline;text-anchor:start;white-space:normal;shape-padding:0;opacity:1;vector-effect:none;fill:#000000;fill-opacity:1;stroke:none;stroke-width:0.26458332px;stroke-linecap:butt;stroke-linejoin:miter;stroke-miterlimit:4;stroke-dasharray:none;stroke-dashoffset:0;stroke-opacity:1"
       xml:space="preserve"><tspan
         style="font-style:normal;font-variant:normal;font-weight:bold;font-stretch:normal;font-family:'Helvetica LT Std';-inkscape-font-specification:'Helvetica LT Std Bold';stroke-width:0.26458332px"
         y="24.479168"
         x="150.8125"
         id="tspan3989"
         sodipodi:role="line">potency</tspan></text>
    <path
       inkscape:original-d="M 2.6458333,11.25 H 148.16666"
       inkscape:path-effect="#path-effect4014"
       inkscape:connector-curvature="0"
       id="path4012"
       d="M 2.6458333,11.25 H 148.16666 m -144.7270767,0 v 3.704167 M 6.0854166,11.25 v 1.852083 M 8.73125,11.25 v 1.852083 M 11.377083,11.25 v 1.852083 M 14.022917,11.25 v 1.852083 M 16.66875,11.25 v 3.704167 M 19.314583,11.25 v 1.852083 M 21.960417,11.25 v 1.852083 M 24.60625,11.25 v 1.852083 M 27.252083,11.25 v 1.852083 M 29.897917,11.25 v 3.704167 M 32.54375,11.25 v 1.852083 M 35.189583,11.25 v 1.852083 M 37.835417,11.25 v 1.852083 M 40.48125,11.25 v 1.852083 M 43.127083,11.25 v 3.704167 M 45.772917,11.25 v 1.852083 M 48.41875,11.25 v 1.852083 M 51.064583,11.25 v 1.852083 M 53.710417,11.25 v 1.852083 M 56.35625,11.25 v 3.704167 M 59.002083,11.25 v 1.852083 M 61.647917,11.25 v 1.852083 M 64.29375,11.25 v 1.852083 M 66.939583,11.25 v 1.852083 M 69.585417,11.25 v 3.704167 M 72.23125,11.25 v 1.852083 M 74.877083,11.25 v 1.852083 M 77.522917,11.25 v 1.852083 M 80.16875,11.25 v 1.852083 M 82.814583,11.25 v 3.704167 M 85.460417,11.25 v 1.852083 M 88.10625,11.25 v 1.852083 M 90.752083,11.25 v 1.852083 M 93.397917,11.25 v 1.852083 M 96.04375,11.25 v 3.704167 M 98.689583,11.25 v 1.852083 M 101.33542,11.25 v 1.852083 M 103.98125,11.25 v 1.852083 M 106.62708,11.25 v 1.852083 M 109.27292,11.25 v 3.704167 M 111.91875,11.25 v 1.852083 M 114.56458,11.25 v 1.852083 M 117.21042,11.25 v 1.852083 M 119.85625,11.25 v 1.852083 M 122.50208,11.25 v 3.704167 M 125.14792,11.25 v 1.852083 M 127.79375,11.25 v 1.852083 M 130.43958,11.25 v 1.852083 M 133.08542,11.25 v 1.852083 M 135.73125,11.25 v 3.704167 M 138.37708,11.25 v 1.852083 M 141.02292,11.25 v 1.852083 M 143.66875,11.25 v 1.852083 M 146.31458,11.25 v 1.852083 M 2.6458333,11.25 v 3.704167 M 148.16666,11.25 v 3.704167"
       style="fill:none;fill-rule:evenodd;stroke:#000000;stroke-width:0.26458332px;stroke-linecap:butt;stroke-linejoin:miter;stroke-opacity:1"
       transform="translate(0,10.583333)" />
    <path
       style="fill:none;fill-rule:evenodd;stroke:#000000;stroke-width:0.26499999;stroke-linecap:butt;stroke-linejoin:miter;stroke-miterlimit:4;stroke-dasharray:none;stroke-opacity:1;marker-start:url(#marker5245);marker-end:url(#marker5629)"
       d="M 21.166666,11.25 18.330871,21.833333"
       id="path4018"
       inkscape:connector-curvature="0" />
    <path
       style="fill:none;fill-rule:evenodd;stroke:#000000;stroke-width:0.26499999;stroke-linecap:butt;stroke-linejoin:miter;stroke-miterlimit:4;stroke-dasharray:none;stroke-opacity:1;marker-start:url(#marker5205);marker-end:url(#marker5553)"
       d="M 42.333333,11.25 V 21.833333"
       id="path4020"
       inkscape:connector-curvature="0" />
    <path
       style="fill:none;fill-rule:evenodd;stroke:#000000;stroke-width:0.26499999;stroke-linecap:butt;stroke-linejoin:miter;stroke-miterlimit:4;stroke-dasharray:none;stroke-opacity:1;marker-start:url(#marker5171);marker-end:url(#marker5483)"
       d="m 74.083332,11.25 5.291667,10.583333"
       id="path4022"
       inkscape:connector-curvature="0"
       sodipodi:nodetypes="cc" />
    <path
       style="fill:none;fill-rule:evenodd;stroke:#000000;stroke-width:0.26499999;stroke-linecap:butt;stroke-linejoin:miter;stroke-miterlimit:4;stroke-dasharray:none;stroke-opacity:1;marker-start:url(#marker5143);marker-end:url(#marker5419)"
       d="m 84.666666,11.25 -3.96875,10.583333"
       id="path4024"
       inkscape:connector-curvature="0" />
    <path
       style="fill:none;fill-rule:evenodd;stroke:#000000;stroke-width:0.26499999;stroke-linecap:butt;stroke-linejoin:miter;stroke-miterlimit:4;stroke-dasharray:none;stroke-opacity:1;marker-start:url(#marker5121);marker-end:url(#marker5121)"
       d="m 100.54167,11.25 6.61458,10.583333"
       id="path4026"
       inkscape:connector-curvature="0" />
    <path
       style="fill:none;fill-rule:evenodd;stroke:#000000;stroke-width:0.26499999;stroke-linecap:butt;stroke-linejoin:miter;stroke-miterlimit:4;stroke-dasharray:none;stroke-opacity:1;marker-start:url(#DotM);marker-end:url(#marker5355)"
       d="M 111.125,11.25 100.54167,21.833333"
       id="path4028"
       inkscape:connector-curvature="0" />
    <path
       style="fill:none;fill-rule:evenodd;stroke:#000000;stroke-width:0.26499999;stroke-linecap:butt;stroke-linejoin:miter;stroke-miterlimit:4;stroke-dasharray:none;stroke-opacity:1;marker-start:url(#marker5291);marker-end:url(#marker5717)"
       d="m 132.29166,11.25 14.55209,10.583333"
       id="path4030"
       inkscape:connector-curvature="0" />
  </g>
</svg>
